<svg width="13" height="14" viewBox="0 0 13 14" fill="none" xmlns="http://www.w3.org/2000/svg">
<g clip-path="url(#clip0_7_88)">
<path fill-rule="evenodd" clip-rule="evenodd" d="M5.79584 1.74848C5.86711 1.62485 5.9697 1.52217 6.09326 1.45078C6.21683 1.37938 6.35702 1.3418 6.49973 1.3418C6.64244 1.3418 6.78263 1.37938 6.9062 1.45078C7.02977 1.52217 7.13235 1.62485 7.20363 1.74848L11.8804 9.84856C11.9517 9.97208 11.9892 10.1122 11.9892 10.2548C11.9892 10.3974 11.9517 10.5375 11.8804 10.6611C11.8091 10.7846 11.7065 10.8871 11.583 10.9585C11.4595 11.0298 11.3194 11.0673 11.1768 11.0673H1.82325C1.68063 11.0673 1.54052 11.0298 1.41701 10.9585C1.2935 10.8871 1.19093 10.7846 1.11962 10.6611C1.04831 10.5375 1.01077 10.3974 1.01077 10.2548C1.01077 10.1122 1.04832 9.97208 1.11963 9.84856L5.79638 1.74848H5.79584Z" fill="black"/>
</g>
<defs>
<clipPath id="clip0_7_88">
<rect width="13" height="13" fill="white" transform="translate(0 0.043335)"/>
</clipPath>
</defs>
</svg>
