<svg width="24" height="24" viewBox="0 0 24 24" fill="none" xmlns="http://www.w3.org/2000/svg">
<path d="M7 18C6.80225 18 6.60895 17.9413 6.44454 17.8314C6.28013 17.7215 6.15199 17.5654 6.07632 17.3827C6.00065 17.2 5.98085 16.9989 6.01942 16.805C6.05798 16.611 6.15319 16.4329 6.293 16.293L16.293 6.293C16.4816 6.11085 16.7342 6.01005 16.9964 6.01233C17.2586 6.01461 17.5094 6.11978 17.6948 6.30518C17.8802 6.49059 17.9854 6.7414 17.9877 7.0036C17.99 7.2658 17.8892 7.5184 17.707 7.707L7.707 17.707C7.61426 17.8 7.50406 17.8738 7.38273 17.924C7.2614 17.9743 7.13134 18.0001 7 18Z" fill="black"/>
<path d="M17.0115 18.0123C16.88 18.0124 16.7498 17.9866 16.6283 17.9362C16.5069 17.8859 16.3966 17.8121 16.3037 17.719L6.2933 7.70874C6.11096 7.51994 6.01006 7.26708 6.01234 7.00462C6.01462 6.74215 6.1199 6.49108 6.3055 6.30548C6.4911 6.11989 6.74217 6.01461 7.00464 6.01233C7.26711 6.01005 7.51998 6.11095 7.70878 6.29329L17.7192 16.3035C17.8592 16.4435 17.9545 16.6219 17.9931 16.816C18.0317 17.0102 18.0119 17.2114 17.9361 17.3943C17.8604 17.5772 17.7321 17.7335 17.5675 17.8435C17.4029 17.9535 17.2094 18.0122 17.0115 18.0123Z" fill="black"/>
</svg>
