<svg width="24" height="25" viewBox="0 0 24 25" fill="none" xmlns="http://www.w3.org/2000/svg">
<path d="M7 18.5433C6.80225 18.5433 6.60895 18.4846 6.44454 18.3747C6.28013 18.2648 6.15199 18.1087 6.07632 17.926C6.00065 17.7433 5.98085 17.5422 6.01942 17.3483C6.05798 17.1543 6.15319 16.9762 6.293 16.8363L16.293 6.83632C16.4816 6.65416 16.7342 6.55336 16.9964 6.55564C17.2586 6.55792 17.5094 6.66309 17.6948 6.8485C17.8802 7.0339 17.9854 7.28472 17.9877 7.54691C17.99 7.80911 17.8892 8.06171 17.707 8.25031L7.707 18.2503C7.61426 18.3433 7.50406 18.4171 7.38273 18.4674C7.2614 18.5176 7.13134 18.5435 7 18.5433Z" fill="black"/>
<path d="M17.0115 18.5556C16.88 18.5557 16.7498 18.5299 16.6283 18.4796C16.5069 18.4292 16.3966 18.3554 16.3037 18.2623L6.29329 8.25205C6.11094 8.06326 6.01004 7.8104 6.01232 7.54793C6.01461 7.28546 6.11988 7.03439 6.30549 6.8488C6.49109 6.6632 6.74216 6.55792 7.00463 6.55564C7.2671 6.55336 7.51997 6.65426 7.70877 6.8366L17.7192 16.8469C17.8592 16.9868 17.9545 17.1652 17.9931 17.3593C18.0317 17.5535 18.0118 17.7547 17.9361 17.9376C17.8603 18.1205 17.7321 18.2768 17.5675 18.3868C17.4029 18.4968 17.2094 18.5556 17.0115 18.5556Z" fill="black"/>
</svg>
