<svg width="18" height="18" viewBox="0 0 18 18" fill="none" xmlns="http://www.w3.org/2000/svg">
<path d="M9.00102 14.0726L9.51304 14.3786L13.8779 16.9875L13.8782 16.9876C13.8922 16.996 13.9007 16.9984 13.9038 16.9992C13.9071 17 13.9095 17.0001 13.912 16.9999C13.9179 16.9996 13.93 16.9967 13.9435 16.987C13.9552 16.9786 13.9598 16.9708 13.961 16.9687C13.961 16.9681 13.961 16.9671 13.9608 16.9657C13.9607 16.9633 13.9601 16.9589 13.9586 16.9524L12.8018 12.0469L12.6619 11.454L13.1247 11.0578L16.9847 7.75258L16.985 7.75228C16.9957 7.74318 16.9993 7.73764 16.9998 7.7368L9.00102 14.0726ZM9.00102 14.0726L8.48847 14.3777M9.00102 14.0726L8.48847 14.3777M8.48847 14.3777L4.1236 16.9762L4.12181 16.9773C4.10778 16.9856 4.09931 16.988 4.09625 16.9888C4.09291 16.9896 4.09047 16.9897 4.08802 16.9895C4.08208 16.9892 4.06997 16.9863 4.05653 16.9766C4.04478 16.9682 4.04015 16.9605 4.03904 16.9583C4.03903 16.9577 4.03904 16.9567 4.03915 16.9553C4.03933 16.9529 4.03985 16.9486 4.04136 16.9421C4.04137 16.9421 4.04138 16.942 4.04139 16.942L5.19824 12.0365L5.33806 11.4436L4.87535 11.0474L1.01533 7.74219L1.01498 7.74188M8.48847 14.3777L1.01498 7.74188M1.01498 7.74188C1.00435 7.73279 1.00072 7.72725 1.0002 7.72641L1.01498 7.74188Z" fill="#37CF97" stroke="#EDEDED" stroke-width="2"/>
</svg>
