<svg width="1222" height="423" viewBox="0 0 1222 423" fill="none" xmlns="http://www.w3.org/2000/svg">
<g filter="url(#filter0_d_14_88)">
<path d="M11 52.1511C11 28.171 30.4397 8.73132 54.4198 8.73132H558.894H648.502C666.973 8.73132 681.947 23.7053 681.947 42.1766C681.947 60.6479 696.921 75.6218 715.393 75.6218H1167.31C1191.29 75.6218 1210.73 95.0615 1210.73 119.042V365.438C1210.73 389.418 1191.29 408.858 1167.31 408.858H507.614H54.4198C30.4397 408.858 11 389.418 11 365.438V227.037V52.1511Z" fill="#DCF4FF"/>
<path d="M12.2162 52.1511C12.2162 28.8427 31.1114 9.94751 54.4198 9.94751H558.894H648.502C666.302 9.94751 680.731 24.3769 680.731 42.1766C680.731 61.3195 696.25 76.838 715.393 76.838H1167.31C1190.62 76.838 1209.51 95.7332 1209.51 119.042V365.438C1209.51 388.747 1190.62 407.642 1167.31 407.642H507.614H54.4198C31.1114 407.642 12.2162 388.747 12.2162 365.438V227.037V52.1511Z" stroke="white" stroke-width="2.43238"/>
</g>
<defs>
<filter id="filter0_d_14_88" x="0.145048" y="0.590109" width="1221.44" height="421.836" filterUnits="userSpaceOnUse" color-interpolation-filters="sRGB">
<feFlood flood-opacity="0" result="BackgroundImageFix"/>
<feColorMatrix in="SourceAlpha" type="matrix" values="0 0 0 0 0 0 0 0 0 0 0 0 0 0 0 0 0 0 127 0" result="hardAlpha"/>
<feOffset dy="2.71374"/>
<feGaussianBlur stdDeviation="5.42748"/>
<feComposite in2="hardAlpha" operator="out"/>
<feColorMatrix type="matrix" values="0 0 0 0 0 0 0 0 0 0 0 0 0 0 0 0 0 0 0.15 0"/>
<feBlend mode="normal" in2="BackgroundImageFix" result="effect1_dropShadow_14_88"/>
<feBlend mode="normal" in="SourceGraphic" in2="effect1_dropShadow_14_88" result="shape"/>
</filter>
</defs>
</svg>
